# Blender 5.0.0
# www.blender.org
mtllib bettercube.mtl
o Cube
v -1.000000 -1.000000 1.000000
v -1.000000 1.000000 1.000000
v -1.000000 -1.000000 -1.000000
v -1.000000 1.000000 -1.000000
v 1.000000 -1.000000 1.000000
v 1.000000 1.000000 1.000000
v 1.000000 -1.000000 -1.000000
v 1.000000 1.000000 -1.000000
vn -1.0000 -0.0000 -0.0000
vn -0.0000 -0.0000 -1.0000
vn 1.0000 -0.0000 -0.0000
vn -0.0000 -0.0000 1.0000
vn -0.0000 -1.0000 -0.0000
vn -0.0000 1.0000 -0.0000
vt 0.998186 0.001814
vt 0.001814 0.998186
vt 0.001814 0.001814
vt 0.999671 0.002282
vt 0.000329 1.001624
vt 0.000329 0.002282
vt 0.001879 1.000074
vt 0.998121 0.003833
vt 0.998121 1.000074
vt 0.998746 0.001254
vt 0.001254 0.998746
vt 0.001254 0.001254
vt 0.996341 0.005612
vt 0.003659 0.998294
vt 0.003659 0.005612
vt 0.995196 0.000898
vt -0.003008 0.999102
vt -0.003008 0.000898
vt 0.998186 0.998186
vt 0.999671 1.001624
vt 0.001879 0.003833
vt 0.998746 0.998746
vt 0.996341 0.998294
vt 0.995196 0.999102
s 0
f 2/1/1 3/2/1 1/3/1
f 4/4/2 7/5/2 3/6/2
f 8/7/3 5/8/3 7/9/3
f 6/10/4 1/11/4 5/12/4
f 7/13/5 1/14/5 3/15/5
f 4/16/6 6/17/6 8/18/6
f 2/1/1 4/19/1 3/2/1
f 4/4/2 8/20/2 7/5/2
f 8/7/3 6/21/3 5/8/3
f 6/10/4 2/22/4 1/11/4
f 7/13/5 5/23/5 1/14/5
f 4/16/6 2/24/6 6/17/6
