# Blender 5.0.0
# www.blender.org
mtllib strangecuboidthing.mtl
o Cube
v -1.000000 -1.000000 1.000000
v -1.000000 1.000000 1.000000
v -1.000000 -1.000000 -1.000000
v -1.000000 1.000000 -1.000000
v 1.000000 -1.000000 1.000000
v 1.000000 1.000000 1.000000
v 1.000000 -1.000000 -1.000000
v 1.000000 1.000000 -1.000000
v -1.000000 1.575324 0.424676
v -1.000000 -0.424676 -1.575324
v -1.000000 1.575324 -1.575324
v 1.000000 1.575324 0.424676
v 1.000000 -0.424676 -1.575324
v 1.000000 1.575324 -1.575324
vn -1.0000 -0.0000 -0.0000
vn 1.0000 -0.0000 -0.0000
vn -0.0000 -0.0000 1.0000
vn -0.0000 -1.0000 -0.0000
vn -0.0000 -0.7071 -0.7071
vn -0.0000 -0.0000 -1.0000
vn -0.0000 1.0000 -0.0000
vn -0.0000 0.7071 0.7071
vt 0.625000 0.000000
vt 0.375000 0.250000
vt 0.375000 0.000000
vt 0.625000 0.250000
vt 0.625000 0.500000
vt 0.375000 0.750000
vt 0.375000 0.500000
vt 0.625000 0.750000
vt 0.375000 1.000000
vt 0.125000 0.750000
vt 0.125000 0.500000
vt 0.875000 0.500000
vt 0.625000 1.000000
vt 0.875000 0.750000
s 0
f 2/1/1 3/2/1 1/3/1
f 4/4/1 9/1/1 11/4/1
f 8/5/2 5/6/2 7/7/2
f 6/8/3 1/9/3 5/6/3
f 7/7/4 1/10/4 3/11/4
f 3/11/5 13/7/5 7/7/5
f 11/4/6 13/7/6 10/2/6
f 11/12/7 12/8/7 14/5/7
f 6/8/8 9/13/8 2/13/8
f 4/4/1 10/2/1 3/2/1
f 8/5/2 12/8/2 6/8/2
f 8/5/2 13/7/2 14/5/2
f 2/1/1 4/4/1 3/2/1
f 4/4/1 2/1/1 9/1/1
f 8/5/2 6/8/2 5/6/2
f 6/8/3 2/13/3 1/9/3
f 7/7/4 5/6/4 1/10/4
f 3/11/5 10/11/5 13/7/5
f 11/4/6 14/5/6 13/7/6
f 11/12/7 9/14/7 12/8/7
f 6/8/8 12/8/8 9/13/8
f 4/4/1 11/4/1 10/2/1
f 8/5/2 14/5/2 12/8/2
f 8/5/2 7/7/2 13/7/2
